<svg aria-hidden="true" style="position: absolute; width: 0; height: 0; overflow: hidden;" version="1.1" xmlns="http://www.w3.org/2000/svg" xmlns:xlink="http://www.w3.org/1999/xlink">
<defs>
<symbol id="icon-actor" viewBox="0 0 20 32">
<path d="M11.139 0.084c-0.375 0.031-0.88 0.084-1.11 0.123-0.237 0.038-0.528 0.046-0.651 0.008-0.153-0.038-0.352-0.023-0.597 0.054-0.329 0.107-0.383 0.107-0.612-0.015-0.161-0.084-0.436-0.13-0.819-0.13-0.498-0.008-0.643 0.023-1.095 0.237-0.291 0.138-0.796 0.436-1.125 0.666s-0.72 0.436-0.857 0.467c-0.766 0.161-1.615 0.934-2.465 2.22-1.278 1.937-1.807 2.764-1.807 2.81 0 0.031 0.069 0.122 0.153 0.199 0.13 0.122 0.145 0.184 0.077 0.352-0.115 0.306-0.092 1.623 0.038 2.182 0.153 0.635 0.589 1.462 1.003 1.883l0.322 0.337 0.084 0.827c0.046 0.452 0.123 1.034 0.161 1.286 0.107 0.628 0.107 0.628-0.138 0.674-0.345 0.069-0.605 0.337-0.789 0.804-0.237 0.612-0.291 2.151-0.115 3.116 0.322 1.745 0.689 2.289 1.6 2.404l0.398 0.046 0.077 0.421c0.069 0.352 0.054 0.605-0.092 1.493-0.245 1.508-0.207 1.393-0.551 1.455-0.168 0.023-0.352 0.092-0.413 0.138-0.061 0.054-0.314 0.796-0.551 1.661-0.245 0.865-0.467 1.631-0.513 1.7-0.1 0.199 0.015 0.367 0.605 0.842 2.013 1.638 4.739 2.871 7.602 3.445 1.255 0.245 3.422 0.245 4.325 0 0.857-0.237 1.393-0.521 1.837-0.965 0.475-0.475 0.574-0.827 0.628-2.121 0.046-1.064-0.077-1.562-0.459-1.86l-0.237-0.184 0.1-0.758c0.092-0.704 0.115-0.766 0.39-1.056 0.582-0.62 1.309-1.585 1.569-2.105 0.253-0.505 0.36-0.857 0.574-1.937 0.084-0.421 0.1-0.436 0.329-0.436 0.322-0.008 0.536-0.184 0.773-0.658 0.299-0.597 0.421-1.187 0.521-2.45 0.107-1.439 0.031-2.166-0.299-2.695-0.153-0.253-0.291-0.383-0.459-0.429-0.199-0.061-0.237-0.107-0.214-0.23 0.023-0.092 0.222-1.332 0.459-2.764 0.23-1.432 0.436-2.71 0.459-2.84 0.031-0.161-0.008-0.291-0.107-0.421-0.145-0.184-0.145-0.191 0-0.375 0.23-0.314 0.191-0.597-0.115-0.735-0.253-0.122-0.26-0.13-0.26-0.635 0-0.429 0.031-0.544 0.207-0.773 0.643-0.827 0.681-1.125 0.184-1.294-0.23-0.084-0.345-0.184-0.436-0.367-0.061-0.138-0.26-0.352-0.436-0.475-0.345-0.253-1.049-0.544-1.317-0.544-0.122 0-0.222-0.1-0.36-0.367-0.268-0.498-1.026-1.24-1.631-1.577-0.934-0.528-2.366-0.766-3.843-0.651zM6.745 6.454c0.49 0.475 0.735 0.559 1.883 0.674 0.452 0.038 1.24 0.161 1.745 0.26 0.505 0.107 0.972 0.191 1.041 0.191s0.345-0.214 0.612-0.482c0.589-0.582 1.347-0.972 1.998-1.034 0.367-0.031 0.482-0.008 0.766 0.161 0.39 0.23 1.202 1.034 1.531 1.516 0.758 1.102 1.011 2.411 0.635 3.307-0.107 0.26-0.107 0.329 0.031 0.88 0.214 0.819 0.375 2.212 0.429 3.606 0.046 1.347 0.115 1.577 0.459 1.577 0.168 0 0.253-0.046 0.306-0.176 0.038-0.092 0.1-0.168 0.13-0.168 0.1 0 0.069 0.299-0.061 0.544-0.092 0.184-0.138 0.214-0.222 0.145-0.061-0.046-0.184-0.077-0.283-0.061-0.153 0.023-0.184 0.077-0.237 0.521-0.23 1.945-0.467 3.46-0.567 3.59-0.008 0.015-0.077-0.015-0.138-0.069-0.1-0.084-0.145-0.084-0.245 0.023-0.107 0.1-0.107 0.145-0.023 0.245 0.054 0.069 0.161 0.1 0.237 0.077 0.161-0.054 0.184 0.015 0.077 0.184-0.061 0.092-0.092 0.1-0.199 0.008-0.1-0.084-0.138-0.084-0.245 0.015-0.1 0.107-0.1 0.161-0.015 0.406 0.092 0.253 0.092 0.306-0.054 0.559-0.191 0.322-0.337 0.398-0.337 0.184 0-0.084-0.054-0.191-0.123-0.245-0.092-0.084-0.138-0.084-0.23 0.015-0.092 0.092-0.1 0.176-0.031 0.482 0.046 0.199 0.061 0.383 0.038 0.406s-0.038-0.015-0.038-0.084c0-0.176-0.214-0.36-0.352-0.306-0.1 0.038-0.115 0.13-0.077 0.513 0.038 0.452 0.038 0.459-0.069 0.237-0.061-0.13-0.107-0.268-0.115-0.314 0-0.046-0.054-0.13-0.115-0.184-0.092-0.077-0.1-0.122-0.023-0.207 0.069-0.084 0.061-0.138-0.038-0.237-0.123-0.115-0.138-0.115-0.253 0-0.084 0.084-0.107 0.176-0.069 0.268 0.038 0.077 0.054 0.199 0.046 0.268s0.038 0.314 0.1 0.528c0.145 0.49 0.145 0.459 0.008 0.406-0.191-0.077-0.36 0.122-0.306 0.367 0.031 0.13 0.015 0.214-0.031 0.214s-0.084-0.077-0.084-0.176c0-0.1-0.046-0.245-0.107-0.329-0.092-0.122-0.138-0.13-0.26-0.054-0.13 0.077-0.161 0.069-0.191-0.061-0.046-0.176-0.23-0.191-0.36-0.031-0.138 0.168 0.046 0.367 0.283 0.306 0.161-0.038 0.176-0.015 0.191 0.268 0.008 0.168 0.015 0.36 0.015 0.436 0.008 0.069-0.023 0.138-0.069 0.153-0.038 0.008-0.084-0.1-0.092-0.253-0.015-0.352-0.13-0.482-0.314-0.36-0.107 0.061-0.123 0.176-0.107 0.544 0.015 0.283-0.008 0.482-0.061 0.513-0.115 0.069-0.322-0.207-0.222-0.299 0.038-0.046 0.069-0.245 0.069-0.444 0-0.421-0.168-0.582-0.352-0.329-0.123 0.161-0.145 0.658-0.038 0.773 0.038 0.038 0.023 0.168-0.038 0.299-0.1 0.222-0.107 0.222-0.153 0.054-0.069-0.245-0.398-0.23-0.459 0.023-0.046 0.168-0.084 0.191-0.421 0.191-0.322 0-0.375-0.023-0.375-0.153 0-0.084-0.015-0.153-0.031-0.153s-0.084-0.023-0.145-0.046c-0.077-0.031-0.161 0.031-0.237 0.176l-0.115 0.214-0.008-0.329c0-0.23-0.038-0.337-0.123-0.375-0.168-0.061-0.337 0.168-0.337 0.452 0 0.138-0.038 0.214-0.115 0.214-0.061 0-0.115-0.046-0.115-0.107 0-0.168-0.237-0.214-0.39-0.077s-0.138 0.153-0.26-0.237c-0.046-0.153-0.268-0.145-0.39 0.015-0.092 0.122-0.1 0.115-0.1-0.092 0.008-0.13 0.031-0.314 0.061-0.421 0.077-0.268 0.015-0.459-0.153-0.459-0.161 0-0.26 0.161-0.329 0.551-0.054 0.276-0.199 0.413-0.199 0.184 0-0.054-0.054-0.145-0.115-0.199-0.092-0.077-0.138-0.077-0.23 0-0.176 0.145-0.199 0.069-0.1-0.406 0.069-0.329 0.069-0.459 0.008-0.521-0.153-0.153-0.314-0.015-0.413 0.329-0.054 0.184-0.107 0.345-0.115 0.36-0.015 0.015-0.306-0.138-0.643-0.337-0.482-0.283-0.612-0.39-0.567-0.49 0.031-0.069 0.069-0.214 0.084-0.322 0.069-0.375-0.283-0.329-0.505 0.061-0.061 0.107-0.092 0.107-0.314-0.054-0.191-0.138-0.23-0.207-0.191-0.337 0.107-0.337 0.13-0.567 0.054-0.612-0.122-0.077-0.291 0.023-0.383 0.23-0.1 0.207-0.291 0.26-0.207 0.046 0.031-0.069 0.061-0.176 0.061-0.237 0-0.054 0.084-0.184 0.176-0.276 0.299-0.299 0.345-0.804 0.069-0.804-0.168 0-0.429 0.459-0.398 0.704 0.023 0.161-0.008 0.214-0.1 0.214-0.207 0-0.23-0.084-0.107-0.322 0.161-0.314 0.092-0.475-0.191-0.421l-0.222 0.046-0.413-1.5 0.161-0.314c0.145-0.276 0.145-0.322 0.046-0.429-0.069-0.061-0.168-0.1-0.222-0.077-0.069 0.031-0.13-0.054-0.176-0.253-0.061-0.253-0.092-0.291-0.291-0.291-0.176 0-0.23 0.038-0.268 0.191-0.038 0.161-0.084 0.184-0.268 0.168-0.123-0.015-0.283-0.061-0.367-0.107-0.314-0.168-0.674-1.332-0.789-2.565-0.054-0.612 0.023-1.707 0.13-1.707 0.031 0 0.184 0.107 0.329 0.237l0.276 0.237-0.184 0.237c-0.413 0.559-0.459 1.34-0.1 1.876 0.253 0.383 1.011 0.834 1.171 0.697 0.138-0.115 0.138-0.635-0.008-0.758-0.061-0.046-0.176-0.069-0.268-0.038-0.222 0.069-0.436-0.138-0.536-0.513-0.123-0.444-0.015-0.498 0.237-0.107 0.176 0.291 0.26 0.352 0.444 0.352 0.276 0 0.352-0.176 0.276-0.666-0.038-0.291-0.031-0.345 0.061-0.306 0.061 0.023 0.168 0 0.23-0.046 0.092-0.077 0.123-0.383 0.153-1.623 0.054-1.929 0.168-2.511 0.597-3.131l0.322-0.452-0.13-0.566c-0.153-0.697-0.153-1.876-0.008-2.588 0.153-0.743 0.582-1.577 0.957-1.876 0.161-0.13 0.482-0.299 0.704-0.383 0.222-0.077 0.406-0.145 0.413-0.145 0-0.008 0.191 0.176 0.421 0.398zM18.48 14.767c0.023 0.038-0.008 0.092-0.077 0.115-0.153 0.061-0.222 0.008-0.145-0.1 0.061-0.1 0.168-0.107 0.222-0.015zM2.128 14.951c0.153 0.168 0.322 0.498 0.436 0.896 0.038 0.145-0.015 0.1-0.214-0.153-0.145-0.191-0.39-0.413-0.536-0.498-0.26-0.138-0.268-0.153-0.153-0.283 0.161-0.184 0.268-0.176 0.467 0.038zM18.756 15.686c0 0.168 0.023 0.352 0.046 0.421 0.077 0.207-0.069 0.13-0.314-0.161l-0.222-0.268 0.176-0.145c0.26-0.207 0.314-0.184 0.314 0.153zM18.565 18.618c-0.145 0.574-0.421 1.148-0.567 1.194-0.161 0.054-0.038-1.523 0.122-1.631 0.069-0.046 0.214-0.153 0.322-0.245l0.199-0.168 0.023 0.184c0.015 0.107-0.031 0.406-0.1 0.666zM3.56 23.173c0.107 0.237 0.322 0.582 0.467 0.766 0.536 0.651 2.901 2.098 4.341 2.656 0.949 0.375 1.332 0.452 2.924 0.582 1.378 0.122 2.963 0.299 3.001 0.337s-0.253 2.006-0.36 2.419c-0.031 0.145-0.107 0.467-0.153 0.704-0.077 0.383-0.115 0.444-0.322 0.513-0.306 0.107-0.291 0.115-0.291-0.13 0-0.345-0.23-0.942-0.513-1.332-0.528-0.727-1.401-1.141-3.238-1.516-1.899-0.398-4.831-1.822-6.14-2.978l-0.314-0.283 0.176-1.087c0.1-0.597 0.184-1.087 0.199-1.087 0.008 0 0.107 0.199 0.222 0.436zM2.626 25.378c1.669 1.508 4.869 3.062 7.097 3.445 0.834 0.145 1.332 0.375 1.669 0.766 0.329 0.375 0.475 0.743 0.475 1.233 0 0.612-0.092 0.666-0.988 0.605-2.611-0.168-5.183-0.972-7.388-2.297-0.796-0.482-1.853-1.233-2.036-1.455-0.077-0.092-0.031-0.352 0.268-1.416 0.199-0.712 0.383-1.301 0.398-1.301 0.023 0 0.245 0.191 0.505 0.421zM15.196 28.991c-0.069 0.612-0.191 1.102-0.314 1.301-0.222 0.352-0.237 0.161-0.061-0.612 0.1-0.429 0.199-0.857 0.222-0.957 0.023-0.092 0.077-0.168 0.123-0.168 0.061 0 0.069 0.138 0.031 0.436z"></path>
<path d="M14.132 12.716c-1.409 0.123-1.96 0.322-1.96 0.72 0 0.36 0.184 0.436 0.873 0.367 1.164-0.115 2.174-0.069 2.687 0.138 0.475 0.184 0.651 0.191 0.743 0.046 0.107-0.168 0.061-0.291-0.26-0.635-0.635-0.689-0.827-0.75-2.082-0.635z"></path>
<path d="M6.063 13.014c-0.176 0.13-0.421 0.375-0.551 0.551-0.207 0.283-0.222 0.329-0.122 0.475 0.122 0.184 0.161 0.184 0.773-0.038 0.521-0.191 1.516-0.23 2.626-0.115l0.628 0.061 0.115-0.276c0.161-0.39 0.153-0.421-0.207-0.582-0.421-0.184-1.332-0.306-2.235-0.306-0.666 0-0.727 0.015-1.026 0.23z"></path>
<path d="M13.619 14.262c-0.421 0.123-1.034 0.467-1.087 0.62-0.023 0.061 0.015 0.184 0.084 0.276l0.13 0.153 0.299-0.153c0.268-0.145 0.306-0.153 0.421-0.046 0.161 0.145 0.85 0.168 0.988 0.031 0.054-0.054 0.092-0.153 0.092-0.23 0-0.184 0.138-0.176 0.566 0.054 0.436 0.23 0.635 0.245 0.697 0.031 0.161-0.498-1.301-0.988-2.189-0.735z"></path>
<path d="M6.921 14.346c-0.406 0.13-0.934 0.429-0.98 0.559-0.054 0.138 0.015 0.306 0.153 0.36 0.061 0.023 0.253-0.023 0.421-0.115l0.314-0.153 0.176 0.191c0.161 0.176 0.222 0.191 0.551 0.153 0.383-0.054 0.635-0.207 0.635-0.39 0-0.138 0.13-0.123 0.528 0.054 0.429 0.199 0.597 0.191 0.666-0.015 0.161-0.521-1.485-0.949-2.465-0.643z"></path>
<path d="M11.56 14.354c-0.069 0.084-0.084 0.367-0.054 1.095 0.038 0.819 0.077 1.087 0.283 1.7 0.322 0.957 0.322 1.102-0.023 1.615-0.299 0.459-0.337 0.597-0.191 0.743 0.13 0.13 0.168 0.115 0.436-0.107 0.161-0.138 0.283-0.176 0.39-0.145 0.329 0.107 0.528-0.329 0.237-0.513-0.123-0.077-0.13-0.122-0.069-0.245 0.115-0.207 0.031-0.735-0.237-1.539-0.176-0.536-0.237-0.888-0.283-1.608-0.023-0.505-0.084-0.965-0.123-1.018-0.107-0.123-0.253-0.115-0.367 0.023z"></path>
<path d="M9.799 18.894c-0.138 0.115-0.161 0.168-0.092 0.291 0.069 0.13 0.161 0.153 0.681 0.153 0.597-0.008 0.597-0.008 0.62-0.214 0.023-0.168-0.015-0.23-0.176-0.291-0.329-0.122-0.842-0.092-1.034 0.061z"></path>
<path d="M3.414 19.636c-0.138 0.145-0.145 0.191-0.054 0.329 0.092 0.153 0.345 0.077 0.375-0.107 0.031-0.237-0.168-0.375-0.322-0.222z"></path>
<path d="M11.958 19.927c-0.1 0.115 0.008 0.658 0.145 0.75 0.214 0.13 0.322-0.015 0.268-0.375-0.061-0.429-0.237-0.589-0.413-0.375z"></path>
<path d="M12.54 19.935c-0.1 0.092-0.115 0.176-0.061 0.352 0.092 0.322 0.145 0.383 0.314 0.383 0.115 0 0.145-0.054 0.145-0.26 0-0.145-0.061-0.337-0.138-0.429-0.13-0.161-0.145-0.161-0.26-0.046z"></path>
<path d="M3.904 20.096c-0.13 0.153-0.038 0.345 0.153 0.345 0.084 0 0.176-0.054 0.199-0.115 0.046-0.115-0.084-0.345-0.199-0.345-0.031 0-0.1 0.054-0.153 0.115z"></path>
<path d="M9.738 20.172c-0.13 0.276-0.115 0.49 0.031 0.551 0.176 0.061 0.352-0.145 0.36-0.444 0.015-0.207-0.015-0.268-0.145-0.283-0.107-0.015-0.184 0.038-0.245 0.176z"></path>
<path d="M10.327 20.188c-0.107 0.291-0.061 0.444 0.153 0.444 0.138 0 0.207-0.061 0.26-0.214 0.092-0.276 0.023-0.436-0.176-0.436-0.1 0-0.184 0.077-0.237 0.207z"></path>
<path d="M11.499 20.073c-0.123 0.122-0.115 0.482 0.015 0.589 0.176 0.145 0.352 0.015 0.352-0.268 0-0.291-0.214-0.475-0.367-0.322z"></path>
<path d="M13.145 20.034c-0.107 0.1-0.054 0.467 0.092 0.643 0.123 0.153 0.161 0.168 0.268 0.077 0.199-0.168 0.031-0.773-0.222-0.773-0.046 0-0.115 0.023-0.138 0.054z"></path>
<path d="M9.141 20.333c-0.115 0.168-0.145 0.176-0.199 0.077-0.1-0.184-0.268-0.145-0.413 0.077-0.115 0.168-0.145 0.176-0.199 0.077-0.038-0.069-0.115-0.122-0.176-0.122-0.145 0-0.375 0.352-0.314 0.498 0.054 0.153 0.329 0.145 0.413-0.008 0.061-0.107 0.077-0.107 0.161 0 0.153 0.184 0.299 0.145 0.421-0.092 0.092-0.176 0.115-0.191 0.161-0.077 0.13 0.337 0.574-0.038 0.574-0.475 0-0.222-0.276-0.199-0.429 0.046z"></path>
<path d="M10.924 20.18c-0.107 0.107-0.054 0.475 0.069 0.521 0.184 0.069 0.345-0.1 0.322-0.329-0.023-0.199-0.268-0.314-0.39-0.191z"></path>
<path d="M13.757 20.188c-0.084 0.077-0.061 0.475 0.023 0.643 0.084 0.153 0.345 0.199 0.421 0.069 0.161-0.26-0.253-0.911-0.444-0.712z"></path>
<path d="M14.339 20.57c-0.069 0.176 0.145 0.521 0.322 0.521 0.184 0 0.245-0.26 0.115-0.49-0.1-0.191-0.367-0.214-0.436-0.031z"></path>
<path d="M3.675 20.723c-0.184 0.237-0.191 0.352-0.031 0.49 0.107 0.084 0.145 0.077 0.268-0.077 0.176-0.214 0.191-0.513 0.031-0.567-0.061-0.031-0.176 0.038-0.268 0.153z"></path>
<path d="M4.379 20.685c0.015 0.115 0.077 0.176 0.176 0.176 0.23 0 0.207-0.299-0.023-0.329-0.153-0.023-0.176 0-0.153 0.153z"></path>
<path d="M4.203 20.976c-0.161 0.092-0.482 0.804-0.429 0.949 0.031 0.069 0.115 0.122 0.207 0.122 0.161 0 0.536-0.628 0.536-0.911 0-0.168-0.153-0.245-0.314-0.161z"></path>
<path d="M7.38 21.091c-0.031 0.069-0.015 0.161 0.031 0.207 0.122 0.122 0.36 0.038 0.36-0.13 0-0.199-0.322-0.26-0.39-0.077z"></path>
<path d="M13.167 21.167c-1.263 0.314-3.56 0.345-4.7 0.069-0.276-0.069-0.467 0.138-0.352 0.36 0.153 0.283 0.566 0.337 2.45 0.337 1.416 0 1.944-0.031 2.48-0.138 0.865-0.176 0.98-0.237 0.949-0.498-0.031-0.253-0.214-0.276-0.827-0.13z"></path>
<path d="M5.137 21.611c-0.046 0.061-0.107 0.214-0.13 0.345-0.069 0.322 0.153 0.429 0.367 0.176 0.168-0.214 0.184-0.513 0.015-0.574-0.161-0.061-0.153-0.061-0.253 0.054z"></path>
<path d="M4.364 21.811c-0.184 0.268-0.176 0.567 0.015 0.605 0.161 0.031 0.459-0.413 0.429-0.635-0.038-0.237-0.26-0.222-0.444 0.031z"></path>
<path d="M5.206 22.599c-0.199 0.329-0.176 0.559 0.069 0.559 0.138 0 0.207-0.069 0.291-0.291 0.207-0.513-0.077-0.72-0.36-0.268z"></path>
<path d="M5.941 22.477c-0.069 0.168 0.13 0.375 0.299 0.306 0.077-0.023 0.115-0.115 0.1-0.214-0.031-0.222-0.322-0.283-0.398-0.092z"></path>
<path d="M15.923 22.545c0 0.237 0.199 0.329 0.352 0.176s0.054-0.367-0.168-0.367c-0.145 0-0.184 0.038-0.184 0.191z"></path>
<path d="M5.527 23.242c-0.092 0.191-0.153 0.383-0.122 0.421 0.023 0.046-0.015 0.145-0.092 0.23-0.13 0.138-0.13 0.161-0.008 0.276 0.122 0.122 0.138 0.122 0.26 0.008 0.1-0.1 0.107-0.153 0.031-0.237-0.069-0.092-0.061-0.122 0.061-0.153 0.153-0.038 0.39-0.498 0.39-0.75 0-0.1-0.054-0.145-0.176-0.145-0.13 0-0.214 0.084-0.345 0.352z"></path>
<path d="M11.016 23.051c-0.077 0.153-0.092 0.153-0.161 0.046-0.1-0.191-0.283-0.161-0.383 0.061-0.077 0.161-0.069 0.222 0.046 0.329 0.123 0.122 0.138 0.122 0.276-0.046s0.145-0.168 0.191-0.015c0.038 0.115 0.107 0.153 0.214 0.138 0.138-0.015 0.168-0.077 0.168-0.329 0-0.36-0.199-0.459-0.352-0.184z"></path>
<path d="M11.56 23.074c-0.1 0.26-0.023 0.444 0.184 0.413 0.13-0.015 0.161-0.077 0.161-0.291 0-0.337-0.23-0.421-0.345-0.122z"></path>
<path d="M6.101 23.395c-0.161 0.345-0.161 0.352-0.023 0.459 0.184 0.13 0.237 0.092 0.436-0.283 0.122-0.245 0.138-0.337 0.061-0.421-0.153-0.191-0.299-0.115-0.475 0.245z"></path>
<path d="M11.024 23.809c-0.13 0.245-0.069 0.643 0.107 0.674 0.184 0.038 0.276-0.107 0.276-0.452 0-0.191-0.038-0.299-0.123-0.329-0.168-0.061-0.168-0.061-0.26 0.107z"></path>
<path d="M6.354 24.115c-0.084 0.161-0.153 0.352-0.153 0.413 0 0.122 0.207 0.222 0.314 0.153 0.13-0.077 0.375-0.635 0.329-0.75-0.084-0.23-0.329-0.138-0.49 0.184z"></path>
<path d="M7.135 24.054c-0.054 0.054-0.092 0.13-0.092 0.184 0 0.046-0.046 0.107-0.107 0.13-0.168 0.069-0.314 0.574-0.199 0.704 0.054 0.061 0.122 0.115 0.161 0.115 0.1 0 0.306-0.352 0.322-0.551 0.008-0.092 0.061-0.214 0.115-0.26 0.122-0.084 0.1-0.345-0.023-0.39-0.046-0.015-0.122 0.015-0.176 0.069z"></path>
<path d="M10.373 24.107c-0.023 0.046-0.061 0.398-0.092 0.796-0.038 0.597-0.023 0.727 0.069 0.758 0.061 0.031 0.153 0.023 0.207-0.015 0.107-0.061 0.276-1.317 0.207-1.5-0.046-0.122-0.322-0.145-0.39-0.038z"></path>
<path d="M14.239 24.153c-0.123 0.145-0.061 0.375 0.107 0.406 0.191 0.038 0.299-0.092 0.245-0.276-0.069-0.199-0.237-0.268-0.352-0.13z"></path>
<path d="M11.537 24.237c-0.031 0.031-0.054 0.329-0.054 0.658 0 0.49 0.023 0.612 0.123 0.651 0.23 0.084 0.345-0.191 0.322-0.781-0.023-0.475-0.038-0.536-0.176-0.559-0.092-0.015-0.184 0-0.214 0.031z"></path>
<path d="M9.684 24.819c-0.015 0.1-0.046 0.413-0.054 0.712-0.023 0.528-0.023 0.536 0.168 0.536 0.184 0 0.191-0.031 0.26-0.589 0.038-0.322 0.046-0.635 0.023-0.704-0.077-0.184-0.352-0.153-0.398 0.046z"></path>
<path d="M10.955 24.796c-0.046 0.084-0.084 0.375-0.084 0.658 0 0.398 0.023 0.513 0.123 0.551 0.23 0.084 0.345-0.191 0.322-0.781-0.015-0.429-0.046-0.536-0.153-0.559-0.069-0.015-0.161 0.046-0.207 0.13z"></path>
<path d="M12.111 24.896c-0.069 0.092-0.13 0.597-0.1 0.919 0.015 0.214 0.306 0.168 0.39-0.061 0.199-0.521-0.023-1.179-0.291-0.857z"></path>
<path d="M7.962 25.026c-0.038 0.084-0.077 0.214-0.077 0.299 0 0.161 0.191 0.276 0.322 0.199 0.107-0.069 0.214-0.398 0.168-0.528-0.069-0.161-0.314-0.145-0.413 0.031z"></path>
<path d="M9.072 25.21c-0.084 0.322-0.015 0.551 0.168 0.574 0.184 0.031 0.291-0.199 0.237-0.528-0.038-0.268-0.345-0.299-0.406-0.046z"></path>
<path d="M11.453 25.837c-0.145 0.383 0.054 0.704 0.306 0.49 0.176-0.145 0.115-0.559-0.092-0.589-0.1-0.015-0.184 0.031-0.214 0.1z"></path>
</symbol>
</defs>
</svg>
